<svg width="166" height="31" viewBox="0 0 166 31" fill="none" xmlns="http://www.w3.org/2000/svg">
<path d="M34.4929 6.28267C34.4588 5.93892 34.3125 5.67187 34.054 5.48153C33.7955 5.29119 33.4446 5.19602 33.0014 5.19602C32.7003 5.19602 32.446 5.23864 32.2386 5.32386C32.0313 5.40625 31.8722 5.52131 31.7614 5.66903C31.6534 5.81676 31.5994 5.98438 31.5994 6.17188C31.5938 6.32812 31.6264 6.46449 31.6974 6.58097C31.7713 6.69744 31.8722 6.7983 32 6.88352C32.1278 6.96591 32.2756 7.03835 32.4432 7.10085C32.6108 7.16051 32.7898 7.21165 32.9801 7.25426L33.7642 7.44176C34.1449 7.52699 34.4943 7.64062 34.8125 7.78267C35.1307 7.92472 35.4063 8.09943 35.6392 8.30682C35.8722 8.5142 36.0526 8.75852 36.1804 9.03977C36.3111 9.32102 36.3778 9.64347 36.3807 10.0071C36.3778 10.5412 36.2415 11.0043 35.9716 11.3963C35.7045 11.7855 35.3182 12.0881 34.8125 12.304C34.3097 12.517 33.7031 12.6236 32.9929 12.6236C32.2884 12.6236 31.6747 12.5156 31.152 12.2997C30.6321 12.0838 30.2259 11.7642 29.9332 11.3409C29.6435 10.9148 29.4915 10.3878 29.4773 9.75994H31.2628C31.2827 10.0526 31.3665 10.2969 31.5142 10.4929C31.6648 10.6861 31.8651 10.8324 32.1151 10.9318C32.3679 11.0284 32.6534 11.0767 32.9716 11.0767C33.2841 11.0767 33.5554 11.0312 33.7855 10.9403C34.0185 10.8494 34.1989 10.723 34.3267 10.5611C34.4545 10.3991 34.5185 10.2131 34.5185 10.0028C34.5185 9.80682 34.4602 9.64205 34.3438 9.50852C34.2301 9.375 34.0625 9.26136 33.8409 9.16761C33.6222 9.07386 33.3537 8.98864 33.0355 8.91193L32.0852 8.6733C31.3494 8.49432 30.7685 8.21449 30.3423 7.83381C29.9162 7.45312 29.7045 6.94034 29.7074 6.29545C29.7045 5.76705 29.8452 5.3054 30.1293 4.91051C30.4162 4.51562 30.8097 4.20739 31.3097 3.9858C31.8097 3.7642 32.3778 3.65341 33.0142 3.65341C33.6619 3.65341 34.2273 3.7642 34.7102 3.9858C35.196 4.20739 35.5739 4.51562 35.8438 4.91051C36.1136 5.3054 36.2528 5.76278 36.2614 6.28267H34.4929ZM37.6218 12.5V3.77273H43.5025V5.29403H39.467V7.37358H43.1999V8.89489H39.467V10.9787H43.5195V12.5H37.6218ZM44.9695 3.77273H47.245L49.6484 9.63636H49.7507L52.1541 3.77273H54.4297V12.5H52.6399V6.8196H52.5675L50.3089 12.4574H49.0902L46.8317 6.7983H46.7592V12.5H44.9695V3.77273ZM55.9499 12.5V3.77273H59.4442C60.0863 3.77273 60.6218 3.8679 61.0508 4.05824C61.4798 4.24858 61.8022 4.51278 62.0181 4.85085C62.234 5.18608 62.342 5.57244 62.342 6.00994C62.342 6.35085 62.2738 6.65057 62.1374 6.90909C62.0011 7.16477 61.8136 7.375 61.5749 7.53977C61.3391 7.7017 61.0692 7.81676 60.7653 7.88494V7.97017C61.0977 7.98437 61.4087 8.07812 61.6985 8.25142C61.9911 8.42472 62.2283 8.66761 62.4102 8.98011C62.592 9.28977 62.6829 9.65909 62.6829 10.0881C62.6829 10.5511 62.5678 10.9645 62.3377 11.3281C62.1104 11.6889 61.7738 11.9744 61.3278 12.1847C60.8817 12.3949 60.332 12.5 59.6786 12.5H55.9499ZM57.7951 10.9915H59.2994C59.8136 10.9915 60.1886 10.8935 60.4244 10.6974C60.6602 10.4986 60.7781 10.2344 60.7781 9.90483C60.7781 9.66335 60.7198 9.45028 60.6033 9.26562C60.4869 9.08097 60.3207 8.93608 60.1048 8.83097C59.8917 8.72585 59.6374 8.6733 59.342 8.6733H57.7951V10.9915ZM57.7951 7.42472H59.163C59.4158 7.42472 59.6403 7.38068 59.8363 7.29261C60.0352 7.2017 60.1914 7.07386 60.305 6.90909C60.4215 6.74432 60.4798 6.54688 60.4798 6.31676C60.4798 6.00142 60.3675 5.74716 60.1431 5.55398C59.9215 5.3608 59.6062 5.2642 59.1971 5.2642H57.7951V7.42472ZM65.7287 3.77273V12.5H63.8835V3.77273H65.7287ZM77.7244 6.82812H75.858C75.8239 6.58665 75.7543 6.37216 75.6491 6.18466C75.544 5.99432 75.4091 5.83239 75.2443 5.69886C75.0795 5.56534 74.8892 5.46307 74.6733 5.39205C74.4602 5.32102 74.2287 5.28551 73.9787 5.28551C73.527 5.28551 73.1335 5.39773 72.7983 5.62216C72.4631 5.84375 72.2031 6.16761 72.0185 6.59375C71.8338 7.01705 71.7415 7.53125 71.7415 8.13636C71.7415 8.75852 71.8338 9.28125 72.0185 9.70455C72.206 10.1278 72.4673 10.4474 72.8026 10.6634C73.1378 10.8793 73.5256 10.9872 73.9659 10.9872C74.2131 10.9872 74.4418 10.9545 74.652 10.8892C74.8651 10.8239 75.054 10.7287 75.2188 10.6037C75.3835 10.4759 75.5199 10.321 75.6278 10.1392C75.7386 9.95739 75.8153 9.75 75.858 9.51705L77.7244 9.52557C77.6761 9.92614 77.5554 10.3125 77.3622 10.6847C77.1719 11.054 76.9148 11.3849 76.5909 11.6776C76.2699 11.9673 75.8864 12.1974 75.4403 12.3679C74.9972 12.5355 74.4957 12.6193 73.9361 12.6193C73.1577 12.6193 72.4616 12.4432 71.848 12.0909C71.2372 11.7386 70.7543 11.2287 70.3991 10.5611C70.0469 9.89347 69.8707 9.08523 69.8707 8.13636C69.8707 7.18466 70.0497 6.375 70.4077 5.70739C70.7656 5.03977 71.2514 4.53125 71.8651 4.18182C72.4787 3.82955 73.169 3.65341 73.9361 3.65341C74.4418 3.65341 74.9105 3.72443 75.3423 3.86648C75.777 4.00852 76.1619 4.21591 76.4972 4.48864C76.8324 4.75852 77.1051 5.08949 77.3153 5.48153C77.5284 5.87358 77.6648 6.32244 77.7244 6.82812ZM79.0476 12.5V3.77273H80.8928V10.9787H84.6342V12.5H79.0476ZM93.5362 8.13636C93.5362 9.08807 93.3558 9.89773 92.995 10.5653C92.6371 11.233 92.1484 11.7429 91.5291 12.0952C90.9126 12.4446 90.2195 12.6193 89.4496 12.6193C88.674 12.6193 87.978 12.4432 87.3615 12.0909C86.745 11.7386 86.2578 11.2287 85.8999 10.5611C85.5419 9.89347 85.3629 9.08523 85.3629 8.13636C85.3629 7.18466 85.5419 6.375 85.8999 5.70739C86.2578 5.03977 86.745 4.53125 87.3615 4.18182C87.978 3.82955 88.674 3.65341 89.4496 3.65341C90.2195 3.65341 90.9126 3.82955 91.5291 4.18182C92.1484 4.53125 92.6371 5.03977 92.995 5.70739C93.3558 6.375 93.5362 7.18466 93.5362 8.13636ZM91.6655 8.13636C91.6655 7.51989 91.5732 7 91.3885 6.5767C91.2067 6.15341 90.9496 5.83239 90.6172 5.61364C90.2848 5.39489 89.8956 5.28551 89.4496 5.28551C89.0036 5.28551 88.6143 5.39489 88.282 5.61364C87.9496 5.83239 87.6911 6.15341 87.5064 6.5767C87.3246 7 87.2337 7.51989 87.2337 8.13636C87.2337 8.75284 87.3246 9.27273 87.5064 9.69602C87.6911 10.1193 87.9496 10.4403 88.282 10.6591C88.6143 10.8778 89.0036 10.9872 89.4496 10.9872C89.8956 10.9872 90.2848 10.8778 90.6172 10.6591C90.9496 10.4403 91.2067 10.1193 91.3885 9.69602C91.5732 9.27273 91.6655 8.75284 91.6655 8.13636ZM100.294 3.77273H102.139V9.44034C102.139 10.0767 101.987 10.6335 101.683 11.1108C101.382 11.5881 100.96 11.9602 100.417 12.2273C99.8746 12.4915 99.2425 12.6236 98.521 12.6236C97.7965 12.6236 97.163 12.4915 96.6204 12.2273C96.0778 11.9602 95.6559 11.5881 95.3548 11.1108C95.0536 10.6335 94.9031 10.0767 94.9031 9.44034V3.77273H96.7482V9.28267C96.7482 9.61506 96.8207 9.91051 96.9656 10.169C97.1133 10.4276 97.3207 10.6307 97.5877 10.7784C97.8548 10.9261 98.1658 11 98.521 11C98.8789 11 99.19 10.9261 99.4542 10.7784C99.7212 10.6307 99.9272 10.4276 100.072 10.169C100.22 9.91051 100.294 9.61506 100.294 9.28267V3.77273ZM106.751 12.5H103.657V3.77273H106.776C107.654 3.77273 108.41 3.94744 109.043 4.29688C109.677 4.64347 110.164 5.14205 110.505 5.79261C110.849 6.44318 111.021 7.22159 111.021 8.12784C111.021 9.03693 110.849 9.81818 110.505 10.4716C110.164 11.125 109.674 11.6264 109.035 11.9759C108.398 12.3253 107.637 12.5 106.751 12.5ZM105.502 10.919H106.674C107.219 10.919 107.678 10.8224 108.05 10.6293C108.425 10.4332 108.707 10.1307 108.894 9.72159C109.085 9.30966 109.18 8.77841 109.18 8.12784C109.18 7.48295 109.085 6.95597 108.894 6.54688C108.707 6.13778 108.427 5.83665 108.055 5.64347C107.683 5.45028 107.224 5.35369 106.678 5.35369H105.502V10.919ZM34.7188 21.0653C34.6733 20.6619 34.4858 20.3494 34.1562 20.1278C33.8267 19.9034 33.4119 19.7912 32.9119 19.7912C32.554 19.7912 32.2443 19.848 31.983 19.9616C31.7216 20.0724 31.5185 20.2259 31.3736 20.4219C31.2315 20.6151 31.1605 20.8352 31.1605 21.0824C31.1605 21.2898 31.2088 21.4687 31.3054 21.6193C31.4048 21.7699 31.5341 21.8963 31.6932 21.9986C31.8551 22.098 32.0284 22.1818 32.2131 22.25C32.3977 22.3153 32.5753 22.3693 32.7457 22.4119L33.598 22.6335C33.8764 22.7017 34.1619 22.794 34.4545 22.9105C34.7472 23.027 35.0185 23.1804 35.2685 23.3707C35.5185 23.5611 35.7202 23.7969 35.8736 24.0781C36.0298 24.3594 36.108 24.696 36.108 25.0881C36.108 25.5824 35.9801 26.0213 35.7244 26.4048C35.4716 26.7884 35.1037 27.0909 34.6207 27.3125C34.1406 27.5341 33.5597 27.6449 32.8778 27.6449C32.2244 27.6449 31.6591 27.5412 31.1818 27.3338C30.7045 27.1264 30.331 26.8324 30.0611 26.4517C29.7912 26.0682 29.642 25.6136 29.6136 25.0881H30.9347C30.9602 25.4034 31.0625 25.6662 31.2415 25.8764C31.4233 26.0838 31.6548 26.2386 31.9361 26.3409C32.2202 26.4403 32.5312 26.4901 32.8693 26.4901C33.2415 26.4901 33.5724 26.4318 33.8622 26.3153C34.1548 26.196 34.3849 26.0312 34.5526 25.821C34.7202 25.608 34.804 25.3594 34.804 25.0753C34.804 24.8168 34.7301 24.6051 34.5824 24.4403C34.4375 24.2756 34.2401 24.1392 33.9901 24.0312C33.7429 23.9233 33.4631 23.8281 33.1506 23.7457L32.1193 23.4645C31.4205 23.2741 30.8665 22.9943 30.4574 22.625C30.0511 22.2557 29.848 21.767 29.848 21.1591C29.848 20.6562 29.9844 20.2173 30.2571 19.8423C30.5298 19.4673 30.8991 19.1761 31.3651 18.9688C31.831 18.7585 32.3565 18.6534 32.9418 18.6534C33.5327 18.6534 34.054 18.7571 34.5057 18.9645C34.9602 19.1719 35.3182 19.4574 35.5795 19.821C35.8409 20.1818 35.9773 20.5966 35.9886 21.0653H34.7188ZM38.7511 25.2798L38.7425 23.7244H38.9641L41.5721 20.9545H43.0977L40.1232 24.108H39.9229L38.7511 25.2798ZM37.5792 27.5V18.7727H38.8533V27.5H37.5792ZM41.7127 27.5L39.369 24.3892L40.2468 23.4986L43.2766 27.5H41.7127ZM44.2589 27.5V20.9545H45.533V27.5H44.2589ZM44.9023 19.9446C44.6808 19.9446 44.4904 19.8707 44.3313 19.723C44.1751 19.5724 44.0969 19.3935 44.0969 19.1861C44.0969 18.9759 44.1751 18.7969 44.3313 18.6491C44.4904 18.4986 44.6808 18.4233 44.9023 18.4233C45.1239 18.4233 45.3129 18.4986 45.4691 18.6491C45.6282 18.7969 45.7077 18.9759 45.7077 19.1861C45.7077 19.3935 45.6282 19.5724 45.4691 19.723C45.3129 19.8707 45.1239 19.9446 44.9023 19.9446ZM47.3494 27.5V18.7727H48.6236V22.0156H48.7003C48.7741 21.8793 48.8807 21.7216 49.0199 21.5426C49.1591 21.3636 49.3523 21.2074 49.5994 21.0739C49.8466 20.9375 50.1733 20.8693 50.5795 20.8693C51.108 20.8693 51.5795 21.0028 51.9943 21.2699C52.4091 21.5369 52.7344 21.9219 52.9702 22.4247C53.2088 22.9276 53.3281 23.5327 53.3281 24.2401C53.3281 24.9474 53.2102 25.554 52.9744 26.0597C52.7386 26.5625 52.4148 26.9503 52.0028 27.223C51.5909 27.4929 51.1207 27.6278 50.5923 27.6278C50.1946 27.6278 49.8693 27.5611 49.6165 27.4276C49.3665 27.294 49.1705 27.1378 49.0284 26.9588C48.8864 26.7798 48.777 26.6207 48.7003 26.4815H48.5938V27.5H47.3494ZM48.598 24.2273C48.598 24.6875 48.6648 25.0909 48.7983 25.4375C48.9318 25.7841 49.125 26.0554 49.3778 26.2514C49.6307 26.4446 49.9403 26.5412 50.3068 26.5412C50.6875 26.5412 51.0057 26.4403 51.2614 26.2386C51.517 26.0341 51.7102 25.7571 51.8409 25.4077C51.9744 25.0582 52.0412 24.6648 52.0412 24.2273C52.0412 23.7955 51.9759 23.4077 51.8452 23.0639C51.7173 22.7202 51.5241 22.4489 51.2656 22.25C51.0099 22.0511 50.6903 21.9517 50.3068 21.9517C49.9375 21.9517 49.625 22.0469 49.3693 22.2372C49.1165 22.4276 48.9247 22.6932 48.794 23.0341C48.6634 23.375 48.598 23.7727 48.598 24.2273ZM54.7589 27.5V20.9545H56.033V27.5H54.7589ZM55.4023 19.9446C55.1808 19.9446 54.9904 19.8707 54.8313 19.723C54.6751 19.5724 54.5969 19.3935 54.5969 19.1861C54.5969 18.9759 54.6751 18.7969 54.8313 18.6491C54.9904 18.4986 55.1808 18.4233 55.4023 18.4233C55.6239 18.4233 55.8129 18.4986 55.9691 18.6491C56.1282 18.7969 56.2077 18.9759 56.2077 19.1861C56.2077 19.3935 56.1282 19.5724 55.9691 19.723C55.8129 19.8707 55.6239 19.9446 55.4023 19.9446ZM60.1974 27.6278C59.669 27.6278 59.1974 27.4929 58.7827 27.223C58.3707 26.9503 58.0469 26.5625 57.8111 26.0597C57.5781 25.554 57.4616 24.9474 57.4616 24.2401C57.4616 23.5327 57.5795 22.9276 57.8153 22.4247C58.054 21.9219 58.3807 21.5369 58.7955 21.2699C59.2102 21.0028 59.6804 20.8693 60.206 20.8693C60.6122 20.8693 60.9389 20.9375 61.1861 21.0739C61.4361 21.2074 61.6293 21.3636 61.7656 21.5426C61.9048 21.7216 62.0128 21.8793 62.0895 22.0156H62.1662V18.7727H63.4403V27.5H62.196V26.4815H62.0895C62.0128 26.6207 61.902 26.7798 61.7571 26.9588C61.6151 27.1378 61.419 27.294 61.169 27.4276C60.919 27.5611 60.5952 27.6278 60.1974 27.6278ZM60.4787 26.5412C60.8452 26.5412 61.1548 26.4446 61.4077 26.2514C61.6634 26.0554 61.8565 25.7841 61.9872 25.4375C62.1207 25.0909 62.1875 24.6875 62.1875 24.2273C62.1875 23.7727 62.1222 23.375 61.9915 23.0341C61.8608 22.6932 61.669 22.4276 61.4162 22.2372C61.1634 22.0469 60.8509 21.9517 60.4787 21.9517C60.0952 21.9517 59.7756 22.0511 59.5199 22.25C59.2642 22.4489 59.071 22.7202 58.9403 23.0639C58.8125 23.4077 58.7486 23.7955 58.7486 24.2273C58.7486 24.6648 58.8139 25.0582 58.9446 25.4077C59.0753 25.7571 59.2685 26.0341 59.5241 26.2386C59.7827 26.4403 60.1009 26.5412 60.4787 26.5412ZM65.2589 27.5V20.9545H66.533V27.5H65.2589ZM65.9023 19.9446C65.6808 19.9446 65.4904 19.8707 65.3313 19.723C65.1751 19.5724 65.0969 19.3935 65.0969 19.1861C65.0969 18.9759 65.1751 18.7969 65.3313 18.6491C65.4904 18.4986 65.6808 18.4233 65.9023 18.4233C66.1239 18.4233 66.3129 18.4986 66.4691 18.6491C66.6282 18.7969 66.7077 18.9759 66.7077 19.1861C66.7077 19.3935 66.6282 19.5724 66.4691 19.723C66.3129 19.8707 66.1239 19.9446 65.9023 19.9446ZM74.4783 20.9545V21.9773H70.9031V20.9545H74.4783ZM71.8619 19.3864H73.136V25.5781C73.136 25.8253 73.1729 26.0114 73.2468 26.1364C73.3207 26.2585 73.4158 26.3423 73.5323 26.3878C73.6516 26.4304 73.7809 26.4517 73.9201 26.4517C74.0224 26.4517 74.1119 26.4446 74.1886 26.4304C74.2653 26.4162 74.3249 26.4048 74.3675 26.3963L74.5977 27.4489C74.5238 27.4773 74.4187 27.5057 74.2823 27.5341C74.146 27.5653 73.9755 27.5824 73.771 27.5852C73.4357 27.5909 73.1232 27.5312 72.8335 27.4062C72.5437 27.2812 72.3093 27.0881 72.1303 26.8267C71.9513 26.5653 71.8619 26.2372 71.8619 25.8423V19.3864ZM78.5746 27.6321C77.9609 27.6321 77.4254 27.4915 76.968 27.2102C76.5107 26.929 76.1555 26.5355 75.9027 26.0298C75.6499 25.5241 75.5234 24.9332 75.5234 24.2571C75.5234 23.5781 75.6499 22.9844 75.9027 22.4759C76.1555 21.9673 76.5107 21.5724 76.968 21.2912C77.4254 21.0099 77.9609 20.8693 78.5746 20.8693C79.1882 20.8693 79.7237 21.0099 80.1811 21.2912C80.6385 21.5724 80.9936 21.9673 81.2464 22.4759C81.4993 22.9844 81.6257 23.5781 81.6257 24.2571C81.6257 24.9332 81.4993 25.5241 81.2464 26.0298C80.9936 26.5355 80.6385 26.929 80.1811 27.2102C79.7237 27.4915 79.1882 27.6321 78.5746 27.6321ZM78.5788 26.5625C78.9766 26.5625 79.3061 26.4574 79.5675 26.2472C79.8288 26.0369 80.022 25.7571 80.147 25.4077C80.2749 25.0582 80.3388 24.6733 80.3388 24.2528C80.3388 23.8352 80.2749 23.4517 80.147 23.1023C80.022 22.75 79.8288 22.4673 79.5675 22.2543C79.3061 22.0412 78.9766 21.9347 78.5788 21.9347C78.1783 21.9347 77.8459 22.0412 77.5817 22.2543C77.3203 22.4673 77.1257 22.75 76.9979 23.1023C76.8729 23.4517 76.8104 23.8352 76.8104 24.2528C76.8104 24.6733 76.8729 25.0582 76.9979 25.4077C77.1257 25.7571 77.3203 26.0369 77.5817 26.2472C77.8459 26.4574 78.1783 26.5625 78.5788 26.5625ZM83.0479 27.5V20.9545H84.3221V27.5H83.0479ZM83.6914 19.9446C83.4698 19.9446 83.2795 19.8707 83.1204 19.723C82.9641 19.5724 82.886 19.3935 82.886 19.1861C82.886 18.9759 82.9641 18.7969 83.1204 18.6491C83.2795 18.4986 83.4698 18.4233 83.6914 18.4233C83.913 18.4233 84.1019 18.4986 84.2582 18.6491C84.4173 18.7969 84.4968 18.9759 84.4968 19.1861C84.4968 19.3935 84.4173 19.5724 84.2582 19.723C84.1019 19.8707 83.913 19.9446 83.6914 19.9446ZM87.3104 18.7727V27.5H86.0362V18.7727H87.3104ZM91.8455 27.6321C91.2006 27.6321 90.6452 27.4943 90.1793 27.2188C89.7163 26.9403 89.3583 26.5497 89.1055 26.0469C88.8555 25.5412 88.7305 24.9489 88.7305 24.2699C88.7305 23.5994 88.8555 23.0085 89.1055 22.4972C89.3583 21.9858 89.7106 21.5866 90.1623 21.2997C90.6168 21.0128 91.1481 20.8693 91.756 20.8693C92.1254 20.8693 92.4833 20.9304 92.8299 21.0526C93.1765 21.1747 93.4876 21.3665 93.7631 21.6278C94.0387 21.8892 94.256 22.2287 94.4151 22.6463C94.5742 23.0611 94.6538 23.5653 94.6538 24.1591V24.6108H89.4506V23.6562H93.4052C93.4052 23.321 93.337 23.0241 93.2006 22.7656C93.0643 22.5043 92.8725 22.2983 92.6254 22.1477C92.381 21.9972 92.0941 21.9219 91.7646 21.9219C91.4066 21.9219 91.0941 22.0099 90.8271 22.1861C90.5629 22.3594 90.3583 22.5866 90.2134 22.8679C90.0714 23.1463 90.0004 23.4489 90.0004 23.7756V24.5213C90.0004 24.9588 90.0771 25.331 90.2305 25.6378C90.3867 25.9446 90.604 26.179 90.8825 26.3409C91.1609 26.5 91.4862 26.5795 91.8583 26.5795C92.0998 26.5795 92.32 26.5455 92.5188 26.4773C92.7177 26.4062 92.8896 26.3011 93.0344 26.1619C93.1793 26.0227 93.2901 25.8509 93.3668 25.6463L94.5728 25.8636C94.4762 26.2187 94.3029 26.5298 94.0529 26.7969C93.8058 27.0611 93.4947 27.267 93.1197 27.4148C92.7475 27.5597 92.3228 27.6321 91.8455 27.6321ZM99.1229 20.9545V21.9773H95.5476V20.9545H99.1229ZM96.5064 19.3864H97.7805V25.5781C97.7805 25.8253 97.8175 26.0114 97.8913 26.1364C97.9652 26.2585 98.0604 26.3423 98.1768 26.3878C98.2962 26.4304 98.4254 26.4517 98.5646 26.4517C98.6669 26.4517 98.7564 26.4446 98.8331 26.4304C98.9098 26.4162 98.9695 26.4048 99.0121 26.3963L99.2422 27.4489C99.1683 27.4773 99.0632 27.5057 98.9268 27.5341C98.7905 27.5653 98.62 27.5824 98.4155 27.5852C98.0803 27.5909 97.7678 27.5312 97.478 27.4062C97.1882 27.2812 96.9538 27.0881 96.7749 26.8267C96.5959 26.5653 96.5064 26.2372 96.5064 25.8423V19.3864ZM108.613 22.5526L107.458 22.7571C107.41 22.6094 107.333 22.4687 107.228 22.3352C107.126 22.2017 106.987 22.0923 106.81 22.0071C106.634 21.9219 106.414 21.8793 106.15 21.8793C105.789 21.8793 105.488 21.9602 105.246 22.1222C105.005 22.2812 104.884 22.4872 104.884 22.7401C104.884 22.9588 104.965 23.1349 105.127 23.2685C105.289 23.402 105.55 23.5114 105.911 23.5966L106.951 23.8352C107.553 23.9744 108.002 24.1889 108.298 24.4787C108.593 24.7685 108.741 25.1449 108.741 25.608C108.741 26 108.627 26.3494 108.4 26.6562C108.175 26.9602 107.862 27.1989 107.458 27.3722C107.058 27.5455 106.593 27.6321 106.065 27.6321C105.332 27.6321 104.734 27.4759 104.271 27.1634C103.808 26.848 103.523 26.4006 103.418 25.821L104.65 25.6335C104.727 25.9545 104.884 26.1974 105.123 26.3622C105.362 26.5241 105.673 26.6051 106.056 26.6051C106.474 26.6051 106.808 26.5185 107.058 26.3452C107.308 26.169 107.433 25.9545 107.433 25.7017C107.433 25.4972 107.356 25.3253 107.202 25.1861C107.052 25.0469 106.82 24.9418 106.508 24.8707L105.4 24.6278C104.789 24.4886 104.337 24.267 104.045 23.9631C103.755 23.6591 103.61 23.2741 103.61 22.8082C103.61 22.4219 103.718 22.0838 103.934 21.794C104.15 21.5043 104.448 21.2784 104.829 21.1165C105.21 20.9517 105.646 20.8693 106.137 20.8693C106.844 20.8693 107.401 21.0227 107.808 21.3295C108.214 21.6335 108.482 22.0412 108.613 22.5526ZM110.142 27.5V20.9545H111.416V27.5H110.142ZM110.785 19.9446C110.564 19.9446 110.373 19.8707 110.214 19.723C110.058 19.5724 109.98 19.3935 109.98 19.1861C109.98 18.9759 110.058 18.7969 110.214 18.6491C110.373 18.4986 110.564 18.4233 110.785 18.4233C111.007 18.4233 111.196 18.4986 111.352 18.6491C111.511 18.7969 111.591 18.9759 111.591 19.1861C111.591 19.3935 111.511 19.5724 111.352 19.723C111.196 19.8707 111.007 19.9446 110.785 19.9446ZM115.874 30.0909C115.354 30.0909 114.907 30.0227 114.532 29.8864C114.16 29.75 113.856 29.5696 113.62 29.3452C113.384 29.1207 113.208 28.875 113.092 28.608L114.187 28.1562C114.263 28.2812 114.366 28.4134 114.494 28.5526C114.624 28.6946 114.8 28.8153 115.022 28.9148C115.246 29.0142 115.535 29.0639 115.887 29.0639C116.37 29.0639 116.769 28.946 117.085 28.7102C117.4 28.4773 117.558 28.1051 117.558 27.5938V26.3068H117.477C117.4 26.446 117.289 26.6009 117.144 26.7713C117.002 26.9418 116.806 27.0895 116.556 27.2145C116.306 27.3395 115.981 27.402 115.58 27.402C115.063 27.402 114.597 27.2812 114.183 27.0398C113.771 26.7955 113.444 26.4361 113.202 25.9616C112.964 25.4844 112.844 24.8977 112.844 24.2017C112.844 23.5057 112.962 22.9091 113.198 22.4119C113.437 21.9148 113.763 21.5341 114.178 21.2699C114.593 21.0028 115.063 20.8693 115.589 20.8693C115.995 20.8693 116.323 20.9375 116.573 21.0739C116.823 21.2074 117.018 21.3636 117.157 21.5426C117.299 21.7216 117.408 21.8793 117.485 22.0156H117.579V20.9545H118.827V27.6449C118.827 28.2074 118.697 28.669 118.435 29.0298C118.174 29.3906 117.82 29.6577 117.374 29.831C116.931 30.0043 116.431 30.0909 115.874 30.0909ZM115.862 26.3452C116.228 26.3452 116.538 26.2599 116.79 26.0895C117.046 25.9162 117.239 25.669 117.37 25.348C117.504 25.0241 117.57 24.6364 117.57 24.1847C117.57 23.7443 117.505 23.3565 117.374 23.0213C117.244 22.6861 117.052 22.4247 116.799 22.2372C116.546 22.0469 116.234 21.9517 115.862 21.9517C115.478 21.9517 115.158 22.0511 114.903 22.25C114.647 22.446 114.454 22.7131 114.323 23.0511C114.195 23.3892 114.131 23.767 114.131 24.1847C114.131 24.6136 114.197 24.9901 114.327 25.3139C114.458 25.6378 114.651 25.8906 114.907 26.0724C115.165 26.2543 115.484 26.3452 115.862 26.3452ZM120.536 27.5V20.9545H121.759V22.0199H121.84C121.977 21.6591 122.2 21.3778 122.509 21.1761C122.819 20.9716 123.19 20.8693 123.621 20.8693C124.059 20.8693 124.425 20.9716 124.721 21.1761C125.019 21.3807 125.239 21.6619 125.381 22.0199H125.45C125.606 21.6705 125.854 21.392 126.195 21.1847C126.536 20.9744 126.942 20.8693 127.414 20.8693C128.008 20.8693 128.492 21.0554 128.867 21.4276C129.245 21.7997 129.434 22.3608 129.434 23.1108V27.5H128.16V23.2301C128.16 22.7869 128.039 22.4659 127.798 22.267C127.556 22.0682 127.268 21.9688 126.933 21.9688C126.518 21.9688 126.195 22.0966 125.965 22.3523C125.735 22.6051 125.62 22.9304 125.62 23.3281V27.5H124.35V23.1491C124.35 22.794 124.239 22.5085 124.018 22.2926C123.796 22.0767 123.508 21.9688 123.153 21.9688C122.911 21.9688 122.688 22.0327 122.484 22.1605C122.282 22.2855 122.119 22.4602 121.994 22.6847C121.871 22.9091 121.81 23.169 121.81 23.4645V27.5H120.536ZM133.047 27.6449C132.632 27.6449 132.257 27.5682 131.922 27.4148C131.586 27.2585 131.321 27.0327 131.125 26.7372C130.931 26.4418 130.835 26.0795 130.835 25.6506C130.835 25.2812 130.906 24.9773 131.048 24.7386C131.19 24.5 131.382 24.3111 131.623 24.1719C131.865 24.0327 132.135 23.9276 132.433 23.8565C132.731 23.7855 133.035 23.7315 133.345 23.6946C133.737 23.6491 134.055 23.6122 134.299 23.5838C134.544 23.5526 134.721 23.5028 134.832 23.4347C134.943 23.3665 134.998 23.2557 134.998 23.1023V23.0724C134.998 22.7003 134.893 22.4119 134.683 22.2074C134.475 22.0028 134.166 21.9006 133.754 21.9006C133.325 21.9006 132.987 21.9957 132.74 22.1861C132.495 22.3736 132.326 22.5824 132.233 22.8125L131.035 22.5398C131.177 22.142 131.385 21.821 131.657 21.5767C131.933 21.3295 132.25 21.1506 132.608 21.0398C132.966 20.9261 133.342 20.8693 133.737 20.8693C133.998 20.8693 134.275 20.9006 134.568 20.9631C134.863 21.0227 135.139 21.1335 135.395 21.2955C135.653 21.4574 135.865 21.6889 136.029 21.9901C136.194 22.2884 136.277 22.6761 136.277 23.1534V27.5H135.032V26.6051H134.981C134.899 26.7699 134.775 26.9318 134.61 27.0909C134.446 27.25 134.234 27.3821 133.975 27.4872C133.717 27.5923 133.407 27.6449 133.047 27.6449ZM133.324 26.6222C133.676 26.6222 133.977 26.5526 134.227 26.4134C134.48 26.2741 134.672 26.0923 134.802 25.8679C134.936 25.6406 135.002 25.3977 135.002 25.1392V24.2955C134.957 24.3409 134.869 24.3835 134.738 24.4233C134.61 24.4602 134.464 24.4929 134.299 24.5213C134.135 24.5469 133.974 24.571 133.818 24.5938C133.662 24.6136 133.531 24.6307 133.426 24.6449C133.179 24.6761 132.953 24.7287 132.748 24.8026C132.547 24.8764 132.385 24.983 132.262 25.1222C132.143 25.2585 132.083 25.4403 132.083 25.6676C132.083 25.983 132.2 26.2216 132.433 26.3835C132.666 26.5426 132.963 26.6222 133.324 26.6222ZM141.15 27.5V20.9545H142.381V21.9943H142.449C142.569 21.642 142.779 21.3651 143.08 21.1634C143.384 20.9588 143.728 20.8565 144.111 20.8565C144.191 20.8565 144.284 20.8594 144.392 20.8651C144.503 20.8707 144.59 20.8778 144.652 20.8864V22.1051C144.601 22.0909 144.51 22.0753 144.38 22.0582C144.249 22.0384 144.118 22.0284 143.988 22.0284C143.686 22.0284 143.418 22.0923 143.182 22.2202C142.949 22.3452 142.765 22.5199 142.628 22.7443C142.492 22.9659 142.424 23.2187 142.424 23.5028V27.5H141.15ZM146.76 29.9545C146.569 29.9545 146.396 29.9389 146.24 29.9077C146.083 29.8793 145.967 29.848 145.89 29.8139L146.197 28.7699C146.43 28.8324 146.637 28.8594 146.819 28.8509C147.001 28.8423 147.162 28.7741 147.301 28.6463C147.443 28.5185 147.568 28.3097 147.676 28.0199L147.833 27.5852L145.439 20.9545H146.802L148.46 26.0341H148.528L150.186 20.9545H151.554L148.856 28.3736C148.731 28.7145 148.572 29.0028 148.379 29.2386C148.186 29.4773 147.956 29.6563 147.689 29.7756C147.422 29.8949 147.112 29.9545 146.76 29.9545ZM154.468 27.6449C154.054 27.6449 153.679 27.5682 153.343 27.4148C153.008 27.2585 152.743 27.0327 152.547 26.7372C152.353 26.4418 152.257 26.0795 152.257 25.6506C152.257 25.2812 152.328 24.9773 152.47 24.7386C152.612 24.5 152.804 24.3111 153.045 24.1719C153.287 24.0327 153.556 23.9276 153.855 23.8565C154.153 23.7855 154.457 23.7315 154.767 23.6946C155.159 23.6491 155.477 23.6122 155.721 23.5838C155.966 23.5526 156.143 23.5028 156.254 23.4347C156.365 23.3665 156.42 23.2557 156.42 23.1023V23.0724C156.42 22.7003 156.315 22.4119 156.105 22.2074C155.897 22.0028 155.588 21.9006 155.176 21.9006C154.747 21.9006 154.409 21.9957 154.162 22.1861C153.917 22.3736 153.748 22.5824 153.654 22.8125L152.457 22.5398C152.599 22.142 152.806 21.821 153.079 21.5767C153.355 21.3295 153.672 21.1506 154.029 21.0398C154.387 20.9261 154.764 20.8693 155.159 20.8693C155.42 20.8693 155.697 20.9006 155.99 20.9631C156.285 21.0227 156.561 21.1335 156.816 21.2955C157.075 21.4574 157.287 21.6889 157.451 21.9901C157.616 22.2884 157.699 22.6761 157.699 23.1534V27.5H156.454V26.6051H156.403C156.321 26.7699 156.197 26.9318 156.032 27.0909C155.868 27.25 155.656 27.3821 155.397 27.4872C155.139 27.5923 154.829 27.6449 154.468 27.6449ZM154.745 26.6222C155.098 26.6222 155.399 26.5526 155.649 26.4134C155.902 26.2741 156.093 26.0923 156.224 25.8679C156.358 25.6406 156.424 25.3977 156.424 25.1392V24.2955C156.379 24.3409 156.291 24.3835 156.16 24.4233C156.032 24.4602 155.886 24.4929 155.721 24.5213C155.556 24.5469 155.396 24.571 155.24 24.5938C155.083 24.6136 154.953 24.6307 154.848 24.6449C154.6 24.6761 154.375 24.7287 154.17 24.8026C153.968 24.8764 153.806 24.983 153.684 25.1222C153.565 25.2585 153.505 25.4403 153.505 25.6676C153.505 25.983 153.622 26.2216 153.855 26.3835C154.088 26.5426 154.385 26.6222 154.745 26.6222ZM160.67 23.6136V27.5H159.396V20.9545H160.619V22.0199H160.7C160.85 21.6733 161.086 21.3949 161.407 21.1847C161.731 20.9744 162.138 20.8693 162.63 20.8693C163.076 20.8693 163.467 20.9631 163.802 21.1506C164.137 21.3352 164.397 21.6108 164.582 21.9773C164.766 22.3437 164.859 22.7969 164.859 23.3366V27.5H163.585V23.4901C163.585 23.0156 163.461 22.6449 163.214 22.3778C162.967 22.108 162.627 21.973 162.195 21.973C161.9 21.973 161.637 22.0369 161.407 22.1648C161.18 22.2926 160.999 22.4801 160.866 22.7273C160.735 22.9716 160.67 23.267 160.67 23.6136Z" fill="white"/>
<g clip-path="url(#clip0_1_8)">
<path d="M19.1528 11.92C18.8999 11.9219 18.6552 11.785 18.5311 11.5451C17.2605 9.08946 14.7595 7.57688 12.004 7.5976C9.24852 7.61831 6.77057 9.16832 5.53701 11.6427C5.36615 11.9855 4.94966 12.1247 4.60698 11.9539C4.2642 11.7831 4.1248 11.3666 4.29566 11.0238C5.76348 8.07967 8.71309 6.23531 11.9936 6.21065C15.274 6.18599 18.2511 7.98574 19.763 10.9077C19.939 11.2478 19.8059 11.6663 19.4657 11.8423C19.3655 11.8941 19.2584 11.9192 19.1528 11.92Z" fill="#CEE8FA"/>
<path d="M19.9768 25.3137L18.3773 25.0688L19.4759 17.8938L21.0754 18.1387C22.3121 18.3281 23.1613 19.4842 22.9719 20.7209L22.5591 23.4172C22.3696 24.654 21.2135 25.5031 19.9768 25.3137Z" fill="#CEE8FA"/>
<path d="M23.1173 18.6266C22.6495 17.9896 21.9616 17.5729 21.1803 17.4533L20.2663 17.3133L20.3485 16.7763C20.4065 16.3977 20.1465 16.0439 19.768 15.9859L16.0662 15.4191C15.8843 15.3911 15.699 15.4368 15.5508 15.5457C15.4026 15.6545 15.3036 15.8178 15.2758 15.9996L13.8028 25.6196C13.7448 25.9982 14.0048 26.3521 14.3833 26.4101L18.0851 26.9769C18.1218 26.9825 18.1586 26.9851 18.1952 26.9848C18.3402 26.9838 18.4822 26.9372 18.6005 26.8503C18.7487 26.7414 18.8477 26.5781 18.8755 26.3963L18.9578 25.8594L19.8718 25.9993C20.0282 26.0233 20.1873 26.0348 20.3445 26.0337C21.8038 26.0227 23.0232 24.9665 23.2444 23.5223L23.6573 20.8259C23.777 20.0446 23.5852 19.2636 23.1173 18.6266ZM15.2788 25.144L16.5418 16.895L18.8725 17.2518L18.4351 20.1093L17.6918 24.9639L17.6918 24.9641L17.6096 25.5008L15.2788 25.144ZM22.2863 20.616L21.8734 23.3124C21.7559 24.0797 21.1086 24.6408 20.3341 24.6467C20.2503 24.6473 20.1654 24.6411 20.0816 24.6283L19.1676 24.4884L19.4886 22.392L20.0563 18.6843L20.9703 18.8243C21.3854 18.8878 21.7508 19.1092 21.9994 19.4476C22.248 19.786 22.3498 20.2009 22.2863 20.616Z" fill="#CEE8FA"/>
<path d="M4.29848 25.4316L5.89414 25.1626L4.68781 18.005L3.09215 18.274C1.85843 18.4819 1.02678 19.6507 1.23469 20.8844L1.68801 23.5742C1.89602 24.808 3.06476 25.6396 4.29848 25.4316Z" fill="#CEE8FA"/>
<path d="M11.97 3.08999C5.46946 3.13886 0.220606 8.46723 0.269477 14.9678C0.279681 16.3252 0.518205 17.6495 0.97767 18.9109C0.578926 19.5313 0.427437 20.2674 0.550826 20.9997L1.00424 23.6894C1.24705 25.1301 2.48233 26.1678 3.94148 26.1569C3.94148 26.1569 3.94152 26.1569 3.94162 26.1569C4.09882 26.1557 4.2577 26.1417 4.41378 26.1154L5.32559 25.9618L5.41589 26.4974C5.44643 26.6788 5.54781 26.8406 5.69773 26.9472C5.81733 27.0323 5.96 27.0767 6.10496 27.0756C6.14157 27.0754 6.17844 27.0722 6.21501 27.066L9.90782 26.4437C10.2855 26.38 10.54 26.0222 10.4764 25.6445L9.55939 20.2036C9.49571 19.8259 9.13823 19.5712 8.76027 19.635C8.38259 19.6987 8.12805 20.0565 8.19168 20.4342L8.99343 25.1912L6.66829 25.5831L6.57803 25.0476L6.57803 25.0474L5.76184 20.2045L5.28145 17.3539L7.60659 16.9621L7.7248 17.6636C7.78847 18.0412 8.14596 18.2959 8.52391 18.2322C8.90159 18.1685 9.15614 17.8107 9.09251 17.433L8.85904 16.0478C8.8285 15.8664 8.72712 15.7046 8.5772 15.598C8.42737 15.4913 8.24117 15.4485 8.05992 15.4792L4.36711 16.1015C3.98944 16.1652 3.73489 16.523 3.79852 16.9007L3.88882 17.4363L2.97701 17.59C2.66533 17.6425 2.36976 17.7431 2.09741 17.8852C1.81241 16.9403 1.6641 15.9592 1.65656 14.9574C1.61344 9.22158 6.2448 4.52011 11.9806 4.47699C17.7163 4.43387 22.4178 9.06523 22.461 14.801C22.4638 15.184 22.7767 15.4921 23.1597 15.4892C23.5427 15.4864 23.8508 15.1736 23.8479 14.7906C23.799 8.28997 18.4706 3.04112 11.97 3.08999ZM3.2074 18.9578L4.11921 18.8041L4.74261 22.5028L5.09506 24.5941L4.18325 24.7478C4.09966 24.7619 4.01484 24.7693 3.9311 24.77C3.15664 24.7758 2.50092 24.2244 2.37191 23.459L1.91849 20.7692C1.84874 20.3551 1.94437 19.9387 2.18776 19.5965C2.43115 19.2544 2.79334 19.0276 3.2074 18.9578Z" fill="#CEE8FA"/>
</g>
<defs>
<clipPath id="clip0_1_8">
<rect width="23.941" height="23.941" fill="white" transform="translate(0 3.17998) rotate(-0.430733)"/>
</clipPath>
</defs>
</svg>
